<?xml version="1.0" standalone="no"?>
<!DOCTYPE svg PUBLIC "-//W3C//DTD SVG 20010904//EN"
 "http://www.w3.org/TR/2001/REC-SVG-20010904/DTD/svg10.dtd">
<svg version="1.0" xmlns="http://www.w3.org/2000/svg"
 width="1079.000000pt" height="1280.000000pt" viewBox="0 0 1079.000000 1280.000000"
 preserveAspectRatio="xMidYMid meet">
<metadata>
Created by potrace 1.15, written by Peter Selinger 2001-2017
</metadata>
<g transform="translate(0.000000,1280.000000) scale(0.100000,-0.100000)"
fill="#000000" stroke="none">
<path d="M4865 12419 c-1022 -33 -1961 -385 -2725 -1023 -958 -799 -1553
-1913 -1730 -3237 -70 -525 -72 -1195 -5 -1716 157 -1217 643 -2235 1441
-3013 477 -466 1077 -846 1633 -1034 524 -178 1064 -255 1704 -243 366 7 661
39 927 101 36 9 67 12 71 8 3 -4 14 -52 24 -107 80 -446 233 -834 437 -1110
131 -177 348 -355 539 -444 348 -161 784 -200 1229 -110 667 135 1200 607
1514 1342 45 106 119 308 114 312 -2 1 -124 85 -273 186 -148 102 -276 189
-283 193 -8 5 -37 -19 -85 -70 -145 -156 -327 -288 -481 -348 -211 -84 -480
-70 -689 35 -239 120 -422 320 -564 616 -45 92 -53 117 -42 123 48 28 266 186
380 277 161 130 434 394 572 556 478 560 830 1250 1020 2002 82 323 137 655
169 1010 20 233 17 963 -5 1185 -75 735 -236 1323 -522 1905 -182 370 -364
652 -626 966 -123 148 -432 460 -580 586 -696 592 -1501 932 -2444 1033 -161
18 -491 26 -720 19z m478 -824 c275 -36 504 -125 706 -275 555 -412 808 -1241
903 -2965 14 -258 18 -1745 5 -2131 -20 -641 -84 -1254 -173 -1677 l-17 -77
-51 122 c-187 446 -513 795 -948 1014 -522 262 -1208 268 -1707 13 -303 -155
-539 -391 -676 -674 -29 -60 -59 -129 -66 -153 -7 -23 -14 -41 -15 -39 -6 6
-44 332 -64 552 -25 281 -46 612 -61 985 -16 384 -17 1567 -1 1910 70 1506
252 2342 613 2824 247 328 586 519 1019 575 111 14 410 12 533 -4z m-293
-6644 c469 -110 732 -425 895 -1071 54 -213 115 -599 101 -635 -8 -23 -309
-166 -448 -214 -449 -154 -920 -146 -1253 22 -276 138 -455 355 -526 639 -30
121 -37 362 -14 499 35 214 108 368 240 507 141 149 286 227 498 268 106 20
395 12 507 -15z"/>
</g>
</svg>
